<svg viewBox="0 0 200 200" fill="none" 
    xmlns="http://www.w3.org/2000/svg">
<g id="SvgjsG1374" featurekey="monogramFeature-0" transform="matrix(4.500224749808137,0,0,4.500224749808137,-21.60106463630814,-78.3039175134596)" fill="#111">
    <path d="M32.94 18 l6.48 0 l0 42.6 l-0.72 0 l-27.42 -27.54 l0 26.94 l-6.48 0 l0 -42.6 l0.72 0 l27.42 27.54 l0 -26.94 z"></path>
</g>
<g id="SvgjsG1375" featurekey="nameFeature-0" transform="matrix(1.3200131188674749,0,0,1.3200131188674749,-4.821612479229314,198.96950146109359)" fill="#111">
    <path d="M22.93 11.777000000000001 l5.8398 0 l0 28.223 l-6.7773 0 l-12.5 -20.176 l0 20.176 l-5.8398 0 l0 -28.223 l6.6992 0 l12.578 20.059 l0 -20.059 z M48.573875 40.39063 c-8.3008 0 -14.434 -5.6641 -14.434 -14.512 c0 -8.8672 6.1328 -14.492 14.434 -14.492 c8.2813 0 14.414 5.625 14.414 14.492 c0 8.8477 -6.1328 14.512 -14.414 14.512 z M48.573875 35.0195 c4.8633 0 8.5938 -3.418 8.5938 -9.1406 c0 -5.7031 -3.7305 -9.1016 -8.5938 -9.1016 s-8.5938 3.3984 -8.5938 9.1016 c0 5.7227 3.7305 9.1406 8.5938 9.1406 z M87.2655625 40 l-2.0508 -5.8203 l-11.855 0 l-2.0508 5.8203 l-5.9961 0 l10.391 -28.223 l7.168 0 l10.391 28.223 l-5.9961 0 z M75.0785625 29.277 l8.418 0 l-4.1992 -11.973 z M114.19965625 40 l-8.7695 -11.992 l-2.0703 0 l0 11.992 l-5.8594 0 l0 -28.223 l5.8594 0 l0 11.094 l1.9922 0 l8.8477 -11.094 l7.1484 0 l-10.938 13.496 l11.27 14.727 l-7.4805 0 z"></path>
</g>
</svg>